<svg width="40" height="40" viewBox="0 0 40 40" fill="none" xmlns="http://www.w3.org/2000/svg">
<rect width="40" height="40" rx="20" transform="matrix(-1 0 0 1 40 0)" fill="#FFB833"/>
<path d="M24.7593 17.213L24.6966 25.1589C24.694 25.4832 24.8033 25.7494 25.0243 25.9573C25.2454 26.1653 25.5183 26.2677 25.8432 26.2646C26.1541 26.2487 26.422 26.1352 26.6469 25.9243C26.8718 25.7133 26.9853 25.4454 26.9873 25.1205L27.0717 14.418C27.073 14.2558 27.0436 14.1109 26.9836 13.9833C26.9235 13.8557 26.8401 13.7379 26.7334 13.6301C26.6267 13.5223 26.509 13.439 26.3803 13.38C26.2515 13.321 26.1067 13.2916 25.9456 13.2918L15.243 13.3763C14.9457 13.3786 14.6846 13.4923 14.4596 13.7173C14.2345 13.9423 14.1143 14.21 14.0989 14.5203C14.0964 14.8447 14.2055 15.1173 14.4265 15.3382C14.6474 15.5592 14.9203 15.6686 15.2452 15.6666L23.1505 15.6042L14.0183 24.7364C13.7867 24.968 13.6697 25.2394 13.6673 25.5508C13.6648 25.8621 13.7776 26.1312 14.0055 26.3581C14.2334 26.5849 14.5028 26.6973 14.8136 26.6954C15.1244 26.6935 15.3956 26.5768 15.6271 26.3453L24.7593 17.213Z" fill="black"/>
</svg>
