<svg width="40" height="40" viewBox="0 0 40 40" fill="none" xmlns="http://www.w3.org/2000/svg">
<rect x="0.5" y="0.5" width="39" height="39" rx="19.5" fill="#FFB833"/>
<rect x="0.5" y="0.5" width="39" height="39" rx="19.5" stroke="black"/>
<rect x="0.5" y="0.5" width="39" height="39" rx="19.5" stroke="black" stroke-opacity="0.2"/>
<path d="M18.4951 14.9294L12.9209 20.5923C12.6934 20.8234 12.4279 20.9344 12.1246 20.9251C11.8212 20.9159 11.5558 20.7953 11.3282 20.5634C11.1197 20.3323 11.0105 20.0626 11.0006 19.7544C10.9908 19.4462 11.1 19.1766 11.3282 18.9454L18.8364 11.3178C18.9501 11.2023 19.0734 11.1206 19.2061 11.0728C19.3388 11.0251 19.481 11.0008 19.6327 11C19.7844 10.9992 19.9266 11.0235 20.0593 11.0728C20.192 11.1221 20.3153 11.2038 20.429 11.3178L27.9372 18.9454C28.1457 19.1573 28.25 19.4224 28.25 19.7406C28.25 20.0588 28.1457 20.333 27.9372 20.5634C27.7096 20.7945 27.4396 20.9101 27.1272 20.9101C26.8147 20.9101 26.5444 20.7945 26.3161 20.5634L20.7703 14.9294V27.8443C20.7703 28.1717 20.6611 28.4464 20.4427 28.6683C20.2242 28.8902 19.9543 29.0008 19.6327 29C19.3111 28.9992 19.0411 28.8883 18.8227 28.6672C18.6043 28.446 18.4951 28.1717 18.4951 27.8443V14.9294Z" fill="black"/>
</svg>
