<svg width="40" height="40" viewBox="0 0 40 40" fill="none" xmlns="http://www.w3.org/2000/svg">
<rect width="40" height="40" rx="20" transform="matrix(-1 0 0 1 40 0)" fill="#FFB833"/>
<path d="M25.4456 21.1299L19.7827 26.7041C19.5516 26.9316 19.4406 27.1971 19.4499 27.5004C19.4591 27.8038 19.5797 28.0692 19.8116 28.2968C20.0427 28.5053 20.3124 28.6145 20.6206 28.6244C20.9288 28.6342 21.1984 28.525 21.4296 28.2968L29.0572 20.7886C29.1727 20.6749 29.2544 20.5516 29.3022 20.4189C29.3499 20.2862 29.3742 20.144 29.375 19.9923C29.3758 19.8406 29.3515 19.6984 29.3022 19.5657C29.2529 19.433 29.1712 19.3097 29.0572 19.196L21.4296 11.6878C21.2177 11.4793 20.9526 11.375 20.6344 11.375C20.3162 11.375 20.042 11.4793 19.8116 11.6878C19.5805 11.9154 19.4649 12.1854 19.4649 12.4978C19.4649 12.8103 19.5805 13.0806 19.8116 13.3089L25.4456 18.8547H12.5307C12.2033 18.8547 11.9286 18.9639 11.7067 19.1823C11.4848 19.4008 11.3742 19.6707 11.375 19.9923C11.3758 20.3139 11.4867 20.5839 11.7078 20.8023C11.929 21.0207 12.2033 21.1299 12.5307 21.1299H25.4456Z" fill="black"/>
</svg>
