<svg width="40" height="40" viewBox="0 0 40 40" fill="none" xmlns="http://www.w3.org/2000/svg">
<rect width="40" height="40" rx="20" fill="#FFB833"/>
<path d="M14.5544 21.1299L20.2173 26.7041C20.4484 26.9316 20.5594 27.1971 20.5501 27.5004C20.5409 27.8038 20.4203 28.0692 20.1884 28.2968C19.9573 28.5053 19.6876 28.6145 19.3794 28.6244C19.0712 28.6342 18.8016 28.525 18.5704 28.2968L10.9428 20.7886C10.8273 20.6749 10.7456 20.5516 10.6978 20.4189C10.6501 20.2862 10.6258 20.144 10.625 19.9923C10.6242 19.8406 10.6485 19.6984 10.6978 19.5657C10.7471 19.433 10.8288 19.3097 10.9428 19.196L18.5704 11.6878C18.7823 11.4793 19.0474 11.375 19.3656 11.375C19.6838 11.375 19.958 11.4793 20.1884 11.6878C20.4195 11.9154 20.5351 12.1854 20.5351 12.4978C20.5351 12.8103 20.4195 13.0806 20.1884 13.3089L14.5544 18.8547H27.4693C27.7967 18.8547 28.0714 18.9639 28.2933 19.1823C28.5152 19.4008 28.6258 19.6707 28.625 19.9923C28.6242 20.3139 28.5133 20.5839 28.2922 20.8023C28.071 21.0207 27.7967 21.1299 27.4693 21.1299H14.5544Z" fill="currentColor"/>
</svg>
