<svg width="40" height="40" viewBox="0 0 40 40" fill="none" xmlns="http://www.w3.org/2000/svg">
<rect width="40" height="40" rx="20" fill="#FFB833"/>
<path d="M15.2406 17.213L15.3033 25.1589C15.3058 25.4832 15.1966 25.7494 14.9755 25.9573C14.7545 26.1653 14.4815 26.2677 14.1567 26.2646C13.8458 26.2487 13.5779 26.1352 13.353 25.9243C13.1281 25.7133 13.0146 25.4454 13.0126 25.1205L12.9281 14.418C12.9269 14.2558 12.9562 14.1109 13.0163 13.9833C13.0764 13.8557 13.1598 13.7379 13.2665 13.6301C13.3732 13.5223 13.4909 13.439 13.6196 13.38C13.7483 13.321 13.8932 13.2916 14.0543 13.2918L24.7569 13.3763C25.0542 13.3786 25.3153 13.4923 25.5403 13.7173C25.7653 13.9423 25.8855 14.21 25.901 14.5203C25.9035 14.8447 25.7943 15.1173 25.5734 15.3382C25.3524 15.5592 25.0795 15.6686 24.7547 15.6666L16.8494 15.6042L25.9816 24.7364C26.2131 24.968 26.3301 25.2394 26.3326 25.5508C26.335 25.8621 26.2223 26.1312 25.9944 26.3581C25.7665 26.5849 25.4971 26.6973 25.1863 26.6954C24.8755 26.6935 24.6043 26.5768 24.3728 26.3453L15.2406 17.213Z" fill="currentColor"/>
</svg>
