<svg width="40" height="40" viewBox="0 0 40 40" fill="none" xmlns="http://www.w3.org/2000/svg">
<rect width="40" height="40" rx="20" fill="#FFB833"/>
<path d="M18.4951 25.0706L12.9209 19.4077C12.6934 19.1766 12.4279 19.0656 12.1246 19.0749C11.8212 19.0841 11.5558 19.2047 11.3282 19.4366C11.1197 19.6677 11.0105 19.9374 11.0006 20.2456C10.9908 20.5538 11.1 20.8234 11.3282 21.0546L18.8364 28.6822C18.9501 28.7977 19.0734 28.8794 19.2061 28.9272C19.3388 28.9749 19.481 28.9992 19.6327 29C19.7844 29.0008 19.9266 28.9765 20.0593 28.9272C20.192 28.8779 20.3153 28.7962 20.429 28.6822L27.9372 21.0546C28.1457 20.8427 28.25 20.5776 28.25 20.2594C28.25 19.9412 28.1457 19.667 27.9372 19.4366C27.7096 19.2055 27.4396 19.0899 27.1272 19.0899C26.8147 19.0899 26.5444 19.2055 26.3161 19.4366L20.7703 25.0706V12.1557C20.7703 11.8283 20.6611 11.5536 20.4427 11.3317C20.2242 11.1098 19.9543 10.9992 19.6327 11C19.3111 11.0008 19.0411 11.1117 18.8227 11.3328C18.6043 11.554 18.4951 11.8283 18.4951 12.1557V25.0706Z" fill="black"/>
</svg>
