<svg  viewBox="0 0 40 40" fill="none" xmlns="http://www.w3.org/2000/svg">
<rect width="40" height="40" rx="20" fill="#FFB833"/>
<path d="M21.234 8C22.5839 8.0036 23.2691 8.0108 23.8607 8.0276L24.0935 8.036C24.3623 8.0456 24.6275 8.0576 24.9479 8.072C26.2246 8.132 27.0958 8.33359 27.8602 8.62998C28.6522 8.93478 29.3194 9.34757 29.9866 10.0136C30.597 10.6132 31.0691 11.3389 31.3701 12.1399C31.6665 12.9043 31.8681 13.7755 31.9281 15.0534C31.9425 15.3726 31.9545 15.6378 31.9641 15.9078L31.9713 16.1406C31.9893 16.731 31.9965 17.4162 31.9989 18.7661L32.0001 19.6613V21.2333C32.003 22.1085 31.9938 22.9838 31.9725 23.8588L31.9653 24.0916C31.9557 24.3616 31.9437 24.6268 31.9293 24.946C31.8693 26.224 31.6653 27.0939 31.3701 27.8595C31.0691 28.6605 30.597 29.3862 29.9866 29.9859C29.3869 30.5963 28.6612 31.0685 27.8602 31.3694C27.0958 31.6658 26.2246 31.8674 24.9479 31.9274L24.0935 31.9634L23.8607 31.9706C23.2691 31.9874 22.5839 31.9958 21.234 31.9982L20.3388 31.9994H18.768C17.8924 32.0025 17.0167 31.9933 16.1413 31.9718L15.9085 31.9646C15.6236 31.9538 15.3388 31.9414 15.0541 31.9274C13.7773 31.8674 12.9062 31.6658 12.1406 31.3694C11.34 31.0683 10.6148 30.5961 10.0154 29.9859C9.40458 29.3863 8.93199 28.6606 8.63067 27.8595C8.33427 27.0951 8.13268 26.224 8.07268 24.946L8.03668 24.0916L8.03068 23.8588C8.00856 22.9838 7.99856 22.1086 8.00068 21.2333V18.7661C7.99736 17.8909 8.00616 17.0156 8.02708 16.1406L8.03548 15.9078C8.04508 15.6378 8.05708 15.3726 8.07148 15.0534C8.13148 13.7755 8.33307 12.9055 8.62947 12.1399C8.93149 11.3386 9.40492 10.6129 10.0166 10.0136C10.6156 9.40342 11.3404 8.93127 12.1406 8.62998C12.9062 8.33359 13.7761 8.132 15.0541 8.072C15.3733 8.0576 15.6397 8.0456 15.9085 8.036L16.1413 8.0288C17.0163 8.00748 17.8916 7.99828 18.7668 8.0012L21.234 8ZM20.0004 13.9999C18.4091 13.9999 16.883 14.632 15.7579 15.7572C14.6327 16.8824 14.0005 18.4084 14.0005 19.9997C14.0005 21.591 14.6327 23.1171 15.7579 24.2422C16.883 25.3674 18.4091 25.9996 20.0004 25.9996C21.5917 25.9996 23.1177 25.3674 24.2429 24.2422C25.3681 23.1171 26.0002 21.591 26.0002 19.9997C26.0002 18.4084 25.3681 16.8824 24.2429 15.7572C23.1177 14.632 21.5917 13.9999 20.0004 13.9999ZM20.0004 16.3998C20.4731 16.3997 20.9413 16.4928 21.3781 16.6736C21.8149 16.8544 22.2118 17.1195 22.5461 17.4538C22.8804 17.788 23.1457 18.1848 23.3266 18.6215C23.5076 19.0583 23.6008 19.5264 23.6009 19.9991C23.601 20.4719 23.5079 20.94 23.3271 21.3768C23.1463 21.8136 22.8812 22.2105 22.5469 22.5448C22.2127 22.8791 21.8159 23.1444 21.3792 23.3254C20.9424 23.5064 20.4743 23.5995 20.0016 23.5996C19.0468 23.5996 18.1312 23.2203 17.4561 22.5452C16.781 21.8701 16.4017 20.9545 16.4017 19.9997C16.4017 19.045 16.781 18.1293 17.4561 17.4542C18.1312 16.7791 19.0468 16.3998 20.0016 16.3998M26.3014 12.1999C25.9036 12.1999 25.5221 12.3579 25.2408 12.6392C24.9595 12.9205 24.8015 13.302 24.8015 13.6999C24.8015 14.0977 24.9595 14.4792 25.2408 14.7605C25.5221 15.0418 25.9036 15.1998 26.3014 15.1998C26.6993 15.1998 27.0808 15.0418 27.3621 14.7605C27.6434 14.4792 27.8014 14.0977 27.8014 13.6999C27.8014 13.302 27.6434 12.9205 27.3621 12.6392C27.0808 12.3579 26.6993 12.1999 26.3014 12.1999Z" fill="#001524"/>
</svg>
