<svg  viewBox="0 0 40 40" fill="none" xmlns="http://www.w3.org/2000/svg">
<rect width="40" height="40" rx="20" fill="#FFB833"/>
<path d="M10.4 29.2C9.74 29.2 9.1752 28.9652 8.7056 28.4956C8.236 28.026 8.0008 27.4608 8 26.8V12.4C8 11.74 8.2352 11.1752 8.7056 10.7056C9.176 10.236 9.7408 10.0008 10.4 10H29.6C30.26 10 30.8252 10.2352 31.2956 10.7056C31.766 11.176 32.0008 11.7408 32 12.4V26.8C32 27.46 31.7652 28.0252 31.2956 28.4956C30.826 28.966 30.2608 29.2008 29.6 29.2H10.4ZM20 20.59C20.1 20.59 20.2052 20.5748 20.3156 20.5444C20.426 20.514 20.5308 20.4692 20.63 20.41L29.12 15.1C29.28 15 29.4 14.8752 29.48 14.7256C29.56 14.576 29.6 14.4108 29.6 14.23C29.6 13.83 29.43 13.53 29.09 13.33C28.75 13.13 28.4 13.14 28.04 13.36L20 18.4L11.96 13.36C11.6 13.14 11.25 13.1352 10.91 13.3456C10.57 13.556 10.4 13.8508 10.4 14.23C10.4 14.43 10.44 14.6052 10.52 14.7556C10.6 14.906 10.72 15.0208 10.88 15.1L19.37 20.41C19.47 20.47 19.5752 20.5152 19.6856 20.5456C19.796 20.576 19.9008 20.5908 20 20.59Z" fill="black"/>
</svg>
