<svg width="40" height="40" viewBox="0 0 40 40" fill="none" xmlns="http://www.w3.org/2000/svg">
<rect width="40" height="40" rx="20" fill="#FFB833"/>
<path d="M20 20C18.35 20 16.9375 19.4125 15.7625 18.2375C14.5875 17.0625 14 15.65 14 14C14 12.35 14.5875 10.9375 15.7625 9.7625C16.9375 8.5875 18.35 8 20 8C21.65 8 23.0625 8.5875 24.2375 9.7625C25.4125 10.9375 26 12.35 26 14C26 15.65 25.4125 17.0625 24.2375 18.2375C23.0625 19.4125 21.65 20 20 20ZM8 29V27.8C8 26.95 8.219 26.169 8.657 25.457C9.095 24.745 9.676 24.201 10.4 23.825C11.95 23.05 13.525 22.469 15.125 22.082C16.725 21.695 18.35 21.501 20 21.5C21.65 21.499 23.275 21.693 24.875 22.082C26.475 22.471 28.05 23.052 29.6 23.825C30.325 24.2 30.9065 24.744 31.3445 25.457C31.7825 26.17 32.001 26.951 32 27.8V29C32 29.825 31.7065 30.5315 31.1195 31.1195C30.5325 31.7075 29.826 32.001 29 32H11C10.175 32 9.469 31.7065 8.882 31.1195C8.295 30.5325 8.001 29.826 8 29Z" fill="black"/>
</svg>
