<svg width="40" height="40" viewBox="0 0 40 40" fill="none" xmlns="http://www.w3.org/2000/svg">
<rect width="40" height="40" rx="20" fill="#FFB833"/>
<path d="M30.6 32C27.8222 32 25.0778 31.3947 22.3667 30.184C19.6556 28.9733 17.1889 27.2564 14.9667 25.0333C12.7444 22.8102 11.028 20.3436 9.81733 17.6333C8.60667 14.9231 8.00089 12.1787 8 9.4C8 9 8.13333 8.66667 8.4 8.4C8.66667 8.13333 9 8 9.4 8H14.8C15.1111 8 15.3889 8.10578 15.6333 8.31733C15.8778 8.52889 16.0222 8.77867 16.0667 9.06667L16.9333 13.7333C16.9778 14.0889 16.9667 14.3889 16.9 14.6333C16.8333 14.8778 16.7111 15.0889 16.5333 15.2667L13.3 18.5333C13.7444 19.3556 14.272 20.1498 14.8827 20.916C15.4933 21.6822 16.1658 22.4213 16.9 23.1333C17.5889 23.8222 18.3111 24.4613 19.0667 25.0507C19.8222 25.64 20.6222 26.1787 21.4667 26.6667L24.6 23.5333C24.8 23.3333 25.0613 23.1836 25.384 23.084C25.7067 22.9844 26.0231 22.9564 26.3333 23L30.9333 23.9333C31.2444 24.0222 31.5 24.1836 31.7 24.4173C31.9 24.6511 32 24.912 32 25.2V30.6C32 31 31.8667 31.3333 31.6 31.6C31.3333 31.8667 31 32 30.6 32Z" fill="black"/>
</svg>
