<svg width="40" height="40" viewBox="0 0 40 40" fill="none" xmlns="http://www.w3.org/2000/svg">
<rect width="40" height="40" rx="20" fill="#FFB833"/>
<path d="M22.1429 30.7987C22.3524 30.8563 22.5954 30.8804 22.872 30.8712C23.1486 30.862 23.3817 30.8187 23.5714 30.7412L32 27.55C32 26.8983 31.7714 26.3521 31.3143 25.9112C30.8571 25.4704 30.3238 25.25 29.7143 25.25H21.8857C21.8286 25.25 21.7619 25.2454 21.6857 25.2362C21.6095 25.227 21.5524 25.2124 21.5143 25.1925L19.8286 24.5887C19.6762 24.5312 19.5714 24.4354 19.5143 24.3012C19.4571 24.1671 19.4476 24.0233 19.4857 23.87C19.5238 23.7358 19.619 23.6304 19.7714 23.5537C19.9238 23.4771 20.0762 23.4675 20.2286 23.525L21.5143 24.0138C21.5905 24.0521 21.6526 24.0762 21.7006 24.0862C21.7486 24.0962 21.8198 24.1008 21.9143 24.1H24.9143C25.2762 24.1 25.595 23.9754 25.8709 23.7262C26.1467 23.4771 26.285 23.1512 26.2857 22.7487C26.2857 22.4804 26.2046 22.2217 26.0423 21.9725C25.88 21.7233 25.6659 21.5508 25.4 21.455L17.4857 18.4938C17.3524 18.4554 17.219 18.4217 17.0857 18.3926C16.9524 18.3634 16.819 18.3492 16.6857 18.35H14.8571V28.7287L22.1429 30.7987ZM8 28.7C8 29.3325 8.224 29.8741 8.672 30.3249C9.12 30.7757 9.6579 31.0008 10.2857 31C10.9135 30.9992 11.4518 30.7742 11.9006 30.3249C12.3493 29.8757 12.573 29.334 12.5714 28.7V20.65C12.5714 20.0175 12.3478 19.4762 11.9006 19.0262C11.4533 18.5762 10.915 18.3508 10.2857 18.35C9.65638 18.3492 9.11848 18.5746 8.672 19.0262C8.22552 19.4778 8.00152 20.019 8 20.65V28.7ZM25.1429 19.73C24.8571 19.73 24.5764 19.6775 24.3006 19.5725C24.0248 19.4674 23.7722 19.3091 23.5429 19.0975L20.4 15.9925C19.8095 15.4175 19.3097 14.7804 18.9006 14.0812C18.4914 13.382 18.2865 12.6199 18.2857 11.795C18.2857 10.7408 18.6526 9.84499 19.3863 9.10745C20.12 8.36992 21.0103 8.00077 22.0571 8C22.6667 8 23.2381 8.12957 23.7714 8.3887C24.3048 8.64784 24.7619 8.99744 25.1429 9.4375C25.5238 8.99667 25.981 8.64669 26.5143 8.38755C27.0476 8.12842 27.619 7.99924 28.2286 8C29.2762 8 30.1669 8.36915 30.9006 9.10745C31.6343 9.84575 32.0008 10.7416 32 11.795C32 12.6192 31.8 13.3812 31.4 14.0812C31 14.7812 30.5048 15.4183 29.9143 15.9925L26.7429 19.0975C26.5143 19.3083 26.2621 19.4667 25.9863 19.5725C25.7105 19.6783 25.4293 19.7308 25.1429 19.73Z" fill="black"/>
</svg>
