<svg  viewBox="0 0 33 33" fill="none" xmlns="http://www.w3.org/2000/svg">
<rect x="0.666504" width="33" height="33" rx="16" fill="#FFB833"/>
<path d="M15.3665 18.5714L20.0375 16L15.3665 13.4286V18.5714ZM25.7705 11.86C25.8875 12.2629 25.9685 12.8029 26.0225 13.4886C26.0855 14.1743 26.1125 14.7657 26.1125 15.28L26.1665 16C26.1665 17.8771 26.0225 19.2571 25.7705 20.14C25.5455 20.9114 25.0235 21.4086 24.2135 21.6229C23.7905 21.7343 23.0165 21.8114 21.8285 21.8629C20.6585 21.9229 19.5875 21.9486 18.5975 21.9486L17.1665 22C13.3955 22 11.0465 21.8629 10.1195 21.6229C9.3095 21.4086 8.7875 20.9114 8.5625 20.14C8.4455 19.7371 8.3645 19.1971 8.3105 18.5114C8.2475 17.8257 8.2205 17.2343 8.2205 16.72L8.1665 16C8.1665 14.1229 8.3105 12.7429 8.5625 11.86C8.7875 11.0886 9.3095 10.5914 10.1195 10.3771C10.5425 10.2657 11.3165 10.1886 12.5045 10.1371C13.6745 10.0771 14.7455 10.0514 15.7355 10.0514L17.1665 10C20.9375 10 23.2865 10.1371 24.2135 10.3771C25.0235 10.5914 25.5455 11.0886 25.7705 11.86Z" fill="#1A1A1A"/>
</svg>
